# xmcd CD database file
#
# Track frame offsets:
#	150
#	100981
#	185470
#	216558
#	295691
#
# Disc length: 4550 seconds
#
# Revision: 0
# Processed by: cddbd v1.5.2PL0 Copyright (c) Steve Scherf et al.
# Submitted via: CDex 1.70beta2
#
DISCID=4a11c405
DTITLE=Wadada Leo Smith - Kabell Years:1971-1979 (Reflectavity)
DYEAR=1900
DGENRE=Jazz
TTITLE0=Reflectavity
TTITLE1=t wmukl - D
TTITLE2=North American Stomp
TTITLE3=Visions
TTITLE4=Transcendental Suite
EXTD=
EXTT0=
EXTT1=
EXTT2=
EXTT3=
EXTT4=
PLAYORDER=
